<svg xmlns="http://www.w3.org/2000/svg" width="1200" height="305" viewBox="0 0 1200 305">
<defs>
  <linearGradient id="accent" x1="0" y1="0" x2="1" y2="0">
    <stop offset="0%" stop-color="#7C3AED"/><stop offset="100%" stop-color="#00E5FF"/>
  </linearGradient>
</defs>
<rect x="1" y="1" width="1198" height="303" rx="24" fill="#0D1117" stroke="#30363D"/>
<rect x="38" y="30" width="1124" height="4" rx="2" fill="url(#accent)"/>
<text x="600" y="74" text-anchor="middle" fill="#F8FAFC" font-family="Arial,Helvetica,sans-serif" font-size="27" font-weight="800">Developer Profile</text>
<g font-family="Arial,Helvetica,sans-serif">
  <g><rect x="45" y="112" width="255" height="145" rx="18" fill="#111827" stroke="#6D28D9"/>
    <text x="172.5" y="148" text-anchor="middle" fill="#C4B5FD" font-size="14" font-weight="700">TRAINING</text>
    <text x="172.5" y="191" text-anchor="middle" fill="#FFFFFF" font-size="21" font-weight="700">Developer Akademie</text>
    <text x="172.5" y="225" text-anchor="middle" fill="#94A3B8" font-size="15">Frontend + Backend</text></g>
  <g><rect x="330" y="112" width="255" height="145" rx="18" fill="#111827" stroke="#0891B2"/>
    <text x="457.5" y="148" text-anchor="middle" fill="#67E8F9" font-size="14" font-weight="700">CURRENT STACK</text>
    <text x="457.5" y="191" text-anchor="middle" fill="#FFFFFF" font-size="21" font-weight="700">HTML • CSS • JavaScript</text>
    <text x="457.5" y="225" text-anchor="middle" fill="#94A3B8" font-size="15">Actively used</text></g>
  <g><rect x="615" y="112" width="255" height="145" rx="18" fill="#111827" stroke="#4338CA"/>
    <text x="742.5" y="148" text-anchor="middle" fill="#A5B4FC" font-size="14" font-weight="700">FOCUS</text>
    <text x="742.5" y="191" text-anchor="middle" fill="#FFFFFF" font-size="21" font-weight="700">Frontend + Backend</text>
    <text x="742.5" y="225" text-anchor="middle" fill="#94A3B8" font-size="15">Complete application flow</text></g>
  <g><rect x="900" y="112" width="255" height="145" rx="18" fill="#111827" stroke="#0E7490"/>
    <text x="1027.5" y="148" text-anchor="middle" fill="#67E8F9" font-size="14" font-weight="700">GOAL</text>
    <text x="1027.5" y="191" text-anchor="middle" fill="#FFFFFF" font-size="21" font-weight="700">Full-Stack Developer</text>
    <text x="1027.5" y="225" text-anchor="middle" fill="#94A3B8" font-size="15">From UI to backend systems</text></g>
</g>
</svg>